<mxfile host="app.diagrams.net" agent="Mozilla/5.0 (X11; Linux x86_64) AppleWebKit/537.36 (KHTML, like Gecko) Chrome/132.0.0.0 Safari/537.36" version="26.0.10">
  <diagram name="Pagina-1" id="PLm1pHZWurcZTcLdCMka">
    <mxGraphModel dx="1048" dy="1777" grid="1" gridSize="10" guides="1" tooltips="1" connect="1" arrows="1" fold="1" page="1" pageScale="1" pageWidth="827" pageHeight="1169" math="0" shadow="0">
      <root>
        <mxCell id="0" />
        <mxCell id="1" parent="0" />
        <mxCell id="Gctm4PoFmCawCtxBsrHC-5" value="" style="edgeStyle=orthogonalEdgeStyle;rounded=0;orthogonalLoop=1;jettySize=auto;html=1;" edge="1" parent="1" source="2kgMk7FJ_yCD8MEMce99-2" target="Gctm4PoFmCawCtxBsrHC-3">
          <mxGeometry relative="1" as="geometry" />
        </mxCell>
        <mxCell id="2kgMk7FJ_yCD8MEMce99-2" value="START" style="ellipse;whiteSpace=wrap;html=1;" parent="1" vertex="1">
          <mxGeometry x="354" y="-1010" width="120" height="80" as="geometry" />
        </mxCell>
        <mxCell id="2kgMk7FJ_yCD8MEMce99-10" value="" style="edgeStyle=orthogonalEdgeStyle;rounded=0;orthogonalLoop=1;jettySize=auto;html=1;" parent="1" source="2kgMk7FJ_yCD8MEMce99-3" target="2kgMk7FJ_yCD8MEMce99-7" edge="1">
          <mxGeometry relative="1" as="geometry" />
        </mxCell>
        <mxCell id="2kgMk7FJ_yCD8MEMce99-3" value="Read N" style="shape=parallelogram;perimeter=parallelogramPerimeter;whiteSpace=wrap;html=1;fixedSize=1;" parent="1" vertex="1">
          <mxGeometry x="354" y="-330" width="120" height="60" as="geometry" />
        </mxCell>
        <mxCell id="2kgMk7FJ_yCD8MEMce99-6" value="" style="edgeStyle=orthogonalEdgeStyle;rounded=0;orthogonalLoop=1;jettySize=auto;html=1;" parent="1" source="2kgMk7FJ_yCD8MEMce99-4" target="2kgMk7FJ_yCD8MEMce99-3" edge="1">
          <mxGeometry relative="1" as="geometry" />
        </mxCell>
        <mxCell id="2kgMk7FJ_yCD8MEMce99-4" value="c = 10" style="rounded=0;whiteSpace=wrap;html=1;" parent="1" vertex="1">
          <mxGeometry x="354" y="-440" width="120" height="60" as="geometry" />
        </mxCell>
        <mxCell id="2kgMk7FJ_yCD8MEMce99-22" value="" style="edgeStyle=orthogonalEdgeStyle;rounded=0;orthogonalLoop=1;jettySize=auto;html=1;" parent="1" source="2kgMk7FJ_yCD8MEMce99-7" edge="1">
          <mxGeometry relative="1" as="geometry">
            <mxPoint x="414" y="-120" as="targetPoint" />
          </mxGeometry>
        </mxCell>
        <mxCell id="2kgMk7FJ_yCD8MEMce99-23" value="TRUE" style="edgeLabel;html=1;align=center;verticalAlign=middle;resizable=0;points=[];" parent="2kgMk7FJ_yCD8MEMce99-22" vertex="1" connectable="0">
          <mxGeometry x="-0.64" relative="1" as="geometry">
            <mxPoint as="offset" />
          </mxGeometry>
        </mxCell>
        <mxCell id="Gctm4PoFmCawCtxBsrHC-13" style="edgeStyle=orthogonalEdgeStyle;rounded=0;orthogonalLoop=1;jettySize=auto;html=1;" edge="1" parent="1" source="2kgMk7FJ_yCD8MEMce99-7">
          <mxGeometry relative="1" as="geometry">
            <mxPoint x="160" y="-280" as="targetPoint" />
          </mxGeometry>
        </mxCell>
        <mxCell id="Gctm4PoFmCawCtxBsrHC-18" value="FALSE" style="edgeLabel;html=1;align=center;verticalAlign=middle;resizable=0;points=[];" vertex="1" connectable="0" parent="Gctm4PoFmCawCtxBsrHC-13">
          <mxGeometry x="-0.4201" y="-1" relative="1" as="geometry">
            <mxPoint as="offset" />
          </mxGeometry>
        </mxCell>
        <mxCell id="2kgMk7FJ_yCD8MEMce99-7" value="N % 1 == 0" style="rhombus;whiteSpace=wrap;html=1;" parent="1" vertex="1">
          <mxGeometry x="374" y="-230" width="80" height="80" as="geometry" />
        </mxCell>
        <mxCell id="2kgMk7FJ_yCD8MEMce99-28" value="" style="edgeStyle=orthogonalEdgeStyle;rounded=0;orthogonalLoop=1;jettySize=auto;html=1;" parent="1" source="2kgMk7FJ_yCD8MEMce99-24" target="2kgMk7FJ_yCD8MEMce99-4" edge="1">
          <mxGeometry relative="1" as="geometry" />
        </mxCell>
        <mxCell id="2kgMk7FJ_yCD8MEMce99-24" value="positivo = 0" style="rounded=0;whiteSpace=wrap;html=1;" parent="1" vertex="1">
          <mxGeometry x="354" y="-560" width="120" height="60" as="geometry" />
        </mxCell>
        <mxCell id="2kgMk7FJ_yCD8MEMce99-27" value="" style="edgeStyle=orthogonalEdgeStyle;rounded=0;orthogonalLoop=1;jettySize=auto;html=1;" parent="1" source="2kgMk7FJ_yCD8MEMce99-25" target="2kgMk7FJ_yCD8MEMce99-24" edge="1">
          <mxGeometry relative="1" as="geometry" />
        </mxCell>
        <mxCell id="2kgMk7FJ_yCD8MEMce99-25" value="negativo = 0" style="rounded=0;whiteSpace=wrap;html=1;" parent="1" vertex="1">
          <mxGeometry x="354" y="-660" width="120" height="60" as="geometry" />
        </mxCell>
        <mxCell id="2kgMk7FJ_yCD8MEMce99-40" value="" style="edgeStyle=orthogonalEdgeStyle;rounded=0;orthogonalLoop=1;jettySize=auto;html=1;" parent="1" source="2kgMk7FJ_yCD8MEMce99-35" target="2kgMk7FJ_yCD8MEMce99-38" edge="1">
          <mxGeometry relative="1" as="geometry" />
        </mxCell>
        <mxCell id="2kgMk7FJ_yCD8MEMce99-41" value="FALSE" style="edgeLabel;html=1;align=center;verticalAlign=middle;resizable=0;points=[];" parent="2kgMk7FJ_yCD8MEMce99-40" vertex="1" connectable="0">
          <mxGeometry x="0.2609" y="1" relative="1" as="geometry">
            <mxPoint as="offset" />
          </mxGeometry>
        </mxCell>
        <mxCell id="2kgMk7FJ_yCD8MEMce99-42" value="" style="edgeStyle=orthogonalEdgeStyle;rounded=0;orthogonalLoop=1;jettySize=auto;html=1;" parent="1" source="2kgMk7FJ_yCD8MEMce99-35" target="2kgMk7FJ_yCD8MEMce99-39" edge="1">
          <mxGeometry relative="1" as="geometry" />
        </mxCell>
        <mxCell id="2kgMk7FJ_yCD8MEMce99-43" value="TRUE" style="edgeLabel;html=1;align=center;verticalAlign=middle;resizable=0;points=[];" parent="2kgMk7FJ_yCD8MEMce99-42" vertex="1" connectable="0">
          <mxGeometry x="-0.4545" y="-3" relative="1" as="geometry">
            <mxPoint as="offset" />
          </mxGeometry>
        </mxCell>
        <mxCell id="2kgMk7FJ_yCD8MEMce99-35" value="N &amp;gt; 0" style="rhombus;whiteSpace=wrap;html=1;" parent="1" vertex="1">
          <mxGeometry x="374" y="-120" width="80" height="80" as="geometry" />
        </mxCell>
        <mxCell id="2kgMk7FJ_yCD8MEMce99-51" value="" style="edgeStyle=orthogonalEdgeStyle;rounded=0;orthogonalLoop=1;jettySize=auto;html=1;" parent="1" source="2kgMk7FJ_yCD8MEMce99-38" target="2kgMk7FJ_yCD8MEMce99-47" edge="1">
          <mxGeometry relative="1" as="geometry" />
        </mxCell>
        <mxCell id="2kgMk7FJ_yCD8MEMce99-38" value="Nnegativi += 1" style="rounded=0;whiteSpace=wrap;html=1;" parent="1" vertex="1">
          <mxGeometry x="180" y="-110" width="120" height="60" as="geometry" />
        </mxCell>
        <mxCell id="2kgMk7FJ_yCD8MEMce99-68" style="edgeStyle=orthogonalEdgeStyle;rounded=0;orthogonalLoop=1;jettySize=auto;html=1;" parent="1" source="2kgMk7FJ_yCD8MEMce99-39" edge="1">
          <mxGeometry relative="1" as="geometry">
            <mxPoint x="414" y="110" as="targetPoint" />
          </mxGeometry>
        </mxCell>
        <mxCell id="2kgMk7FJ_yCD8MEMce99-39" value="Npositivi += 1" style="rounded=0;whiteSpace=wrap;html=1;" parent="1" vertex="1">
          <mxGeometry x="354" y="10" width="120" height="60" as="geometry" />
        </mxCell>
        <mxCell id="2kgMk7FJ_yCD8MEMce99-73" value="" style="edgeStyle=orthogonalEdgeStyle;rounded=0;orthogonalLoop=1;jettySize=auto;html=1;" parent="1" source="2kgMk7FJ_yCD8MEMce99-44" target="2kgMk7FJ_yCD8MEMce99-72" edge="1">
          <mxGeometry relative="1" as="geometry" />
        </mxCell>
        <mxCell id="2kgMk7FJ_yCD8MEMce99-44" value="c - 1" style="rounded=0;whiteSpace=wrap;html=1;" parent="1" vertex="1">
          <mxGeometry x="354" y="250" width="120" height="60" as="geometry" />
        </mxCell>
        <mxCell id="2kgMk7FJ_yCD8MEMce99-62" value="" style="edgeStyle=orthogonalEdgeStyle;rounded=0;orthogonalLoop=1;jettySize=auto;html=1;" parent="1" source="2kgMk7FJ_yCD8MEMce99-45" target="2kgMk7FJ_yCD8MEMce99-61" edge="1">
          <mxGeometry relative="1" as="geometry" />
        </mxCell>
        <mxCell id="2kgMk7FJ_yCD8MEMce99-45" value="c - 1" style="rounded=0;whiteSpace=wrap;html=1;" parent="1" vertex="1">
          <mxGeometry x="40" y="10" width="120" height="60" as="geometry" />
        </mxCell>
        <mxCell id="2kgMk7FJ_yCD8MEMce99-60" value="" style="edgeStyle=orthogonalEdgeStyle;rounded=0;orthogonalLoop=1;jettySize=auto;html=1;" parent="1" source="2kgMk7FJ_yCD8MEMce99-46" target="2kgMk7FJ_yCD8MEMce99-59" edge="1">
          <mxGeometry relative="1" as="geometry" />
        </mxCell>
        <mxCell id="2kgMk7FJ_yCD8MEMce99-64" value="TRUE" style="edgeLabel;html=1;align=center;verticalAlign=middle;resizable=0;points=[];" parent="2kgMk7FJ_yCD8MEMce99-60" vertex="1" connectable="0">
          <mxGeometry x="-0.2" y="1" relative="1" as="geometry">
            <mxPoint as="offset" />
          </mxGeometry>
        </mxCell>
        <mxCell id="2kgMk7FJ_yCD8MEMce99-65" style="edgeStyle=orthogonalEdgeStyle;rounded=0;orthogonalLoop=1;jettySize=auto;html=1;exitX=0;exitY=0.5;exitDx=0;exitDy=0;" parent="1" source="2kgMk7FJ_yCD8MEMce99-46" edge="1">
          <mxGeometry relative="1" as="geometry">
            <mxPoint x="120" y="-300" as="targetPoint" />
            <Array as="points">
              <mxPoint x="11" y="250" />
              <mxPoint x="11" y="-300" />
              <mxPoint x="60" y="-300" />
            </Array>
          </mxGeometry>
        </mxCell>
        <mxCell id="Gctm4PoFmCawCtxBsrHC-1" value="F" style="edgeLabel;html=1;align=center;verticalAlign=middle;resizable=0;points=[];" vertex="1" connectable="0" parent="2kgMk7FJ_yCD8MEMce99-65">
          <mxGeometry x="-0.8692" y="-1" relative="1" as="geometry">
            <mxPoint as="offset" />
          </mxGeometry>
        </mxCell>
        <mxCell id="Gctm4PoFmCawCtxBsrHC-2" value="FALSE" style="edgeLabel;html=1;align=center;verticalAlign=middle;resizable=0;points=[];" vertex="1" connectable="0" parent="2kgMk7FJ_yCD8MEMce99-65">
          <mxGeometry x="-0.8785" relative="1" as="geometry">
            <mxPoint as="offset" />
          </mxGeometry>
        </mxCell>
        <mxCell id="2kgMk7FJ_yCD8MEMce99-46" value="c == 0" style="rhombus;whiteSpace=wrap;html=1;" parent="1" vertex="1">
          <mxGeometry x="60" y="210" width="80" height="80" as="geometry" />
        </mxCell>
        <mxCell id="2kgMk7FJ_yCD8MEMce99-52" value="" style="edgeStyle=orthogonalEdgeStyle;rounded=0;orthogonalLoop=1;jettySize=auto;html=1;" parent="1" source="2kgMk7FJ_yCD8MEMce99-47" target="2kgMk7FJ_yCD8MEMce99-45" edge="1">
          <mxGeometry relative="1" as="geometry" />
        </mxCell>
        <mxCell id="2kgMk7FJ_yCD8MEMce99-53" value="TRUE" style="edgeLabel;html=1;align=center;verticalAlign=middle;resizable=0;points=[];" parent="2kgMk7FJ_yCD8MEMce99-52" vertex="1" connectable="0">
          <mxGeometry x="-0.2" y="2" relative="1" as="geometry">
            <mxPoint as="offset" />
          </mxGeometry>
        </mxCell>
        <mxCell id="Gctm4PoFmCawCtxBsrHC-12" style="edgeStyle=orthogonalEdgeStyle;rounded=0;orthogonalLoop=1;jettySize=auto;html=1;" edge="1" parent="1" source="2kgMk7FJ_yCD8MEMce99-47">
          <mxGeometry relative="1" as="geometry">
            <mxPoint x="140" y="-280" as="targetPoint" />
          </mxGeometry>
        </mxCell>
        <mxCell id="Gctm4PoFmCawCtxBsrHC-19" value="FALSE" style="edgeLabel;html=1;align=center;verticalAlign=middle;resizable=0;points=[];" vertex="1" connectable="0" parent="Gctm4PoFmCawCtxBsrHC-12">
          <mxGeometry x="-0.591" y="-3" relative="1" as="geometry">
            <mxPoint as="offset" />
          </mxGeometry>
        </mxCell>
        <mxCell id="2kgMk7FJ_yCD8MEMce99-47" value="N%2 == 0&lt;br&gt;OR&lt;br&gt;N &amp;lt; - 10" style="rhombus;whiteSpace=wrap;html=1;" parent="1" vertex="1">
          <mxGeometry x="60" y="-120" width="80" height="80" as="geometry" />
        </mxCell>
        <mxCell id="2kgMk7FJ_yCD8MEMce99-49" value="" style="edgeStyle=orthogonalEdgeStyle;rounded=0;orthogonalLoop=1;jettySize=auto;html=1;" parent="1" source="2kgMk7FJ_yCD8MEMce99-48" target="2kgMk7FJ_yCD8MEMce99-25" edge="1">
          <mxGeometry relative="1" as="geometry" />
        </mxCell>
        <mxCell id="2kgMk7FJ_yCD8MEMce99-48" value="Nnegativi = 0" style="rounded=0;whiteSpace=wrap;html=1;" parent="1" vertex="1">
          <mxGeometry x="354" y="-770" width="120" height="60" as="geometry" />
        </mxCell>
        <mxCell id="Gctm4PoFmCawCtxBsrHC-10" style="edgeStyle=orthogonalEdgeStyle;rounded=0;orthogonalLoop=1;jettySize=auto;html=1;" edge="1" parent="1" source="2kgMk7FJ_yCD8MEMce99-59" target="Gctm4PoFmCawCtxBsrHC-11">
          <mxGeometry relative="1" as="geometry">
            <mxPoint x="100" y="500" as="targetPoint" />
          </mxGeometry>
        </mxCell>
        <mxCell id="2kgMk7FJ_yCD8MEMce99-59" value="Write Npositivi,Nnegativi, negativo, positivo" style="shape=parallelogram;perimeter=parallelogramPerimeter;whiteSpace=wrap;html=1;fixedSize=1;" parent="1" vertex="1">
          <mxGeometry x="40" y="360" width="120" height="60" as="geometry" />
        </mxCell>
        <mxCell id="2kgMk7FJ_yCD8MEMce99-63" value="" style="edgeStyle=orthogonalEdgeStyle;rounded=0;orthogonalLoop=1;jettySize=auto;html=1;" parent="1" source="2kgMk7FJ_yCD8MEMce99-61" target="2kgMk7FJ_yCD8MEMce99-46" edge="1">
          <mxGeometry relative="1" as="geometry" />
        </mxCell>
        <mxCell id="2kgMk7FJ_yCD8MEMce99-61" value="negativo += 1" style="rounded=0;whiteSpace=wrap;html=1;" parent="1" vertex="1">
          <mxGeometry x="40" y="110" width="120" height="60" as="geometry" />
        </mxCell>
        <mxCell id="2kgMk7FJ_yCD8MEMce99-70" value="" style="edgeStyle=orthogonalEdgeStyle;rounded=0;orthogonalLoop=1;jettySize=auto;html=1;" parent="1" source="2kgMk7FJ_yCD8MEMce99-69" target="2kgMk7FJ_yCD8MEMce99-44" edge="1">
          <mxGeometry relative="1" as="geometry" />
        </mxCell>
        <mxCell id="2kgMk7FJ_yCD8MEMce99-71" value="TRUE" style="edgeLabel;html=1;align=center;verticalAlign=middle;resizable=0;points=[];" parent="2kgMk7FJ_yCD8MEMce99-70" vertex="1" connectable="0">
          <mxGeometry x="-0.1714" y="-2" relative="1" as="geometry">
            <mxPoint as="offset" />
          </mxGeometry>
        </mxCell>
        <mxCell id="2kgMk7FJ_yCD8MEMce99-75" style="edgeStyle=orthogonalEdgeStyle;rounded=0;orthogonalLoop=1;jettySize=auto;html=1;exitX=1;exitY=0.5;exitDx=0;exitDy=0;entryX=1;entryY=0.5;entryDx=0;entryDy=0;" parent="1" source="2kgMk7FJ_yCD8MEMce99-69" target="2kgMk7FJ_yCD8MEMce99-3" edge="1">
          <mxGeometry relative="1" as="geometry">
            <mxPoint x="595" y="-270" as="targetPoint" />
            <Array as="points">
              <mxPoint x="595" y="150" />
              <mxPoint x="595" y="-300" />
            </Array>
          </mxGeometry>
        </mxCell>
        <mxCell id="2kgMk7FJ_yCD8MEMce99-76" value="FALSE" style="edgeLabel;html=1;align=center;verticalAlign=middle;resizable=0;points=[];" parent="2kgMk7FJ_yCD8MEMce99-75" vertex="1" connectable="0">
          <mxGeometry x="-0.9067" y="3" relative="1" as="geometry">
            <mxPoint as="offset" />
          </mxGeometry>
        </mxCell>
        <mxCell id="2kgMk7FJ_yCD8MEMce99-69" value="N%2 == 0&lt;br&gt;AND&amp;nbsp;&lt;br&gt;N &amp;gt; 20" style="rhombus;whiteSpace=wrap;html=1;" parent="1" vertex="1">
          <mxGeometry x="374" y="110" width="80" height="80" as="geometry" />
        </mxCell>
        <mxCell id="2kgMk7FJ_yCD8MEMce99-74" value="" style="edgeStyle=orthogonalEdgeStyle;rounded=0;orthogonalLoop=1;jettySize=auto;html=1;" parent="1" source="2kgMk7FJ_yCD8MEMce99-72" edge="1">
          <mxGeometry relative="1" as="geometry">
            <mxPoint x="150" y="250" as="targetPoint" />
            <Array as="points">
              <mxPoint x="201" y="390" />
            </Array>
          </mxGeometry>
        </mxCell>
        <mxCell id="2kgMk7FJ_yCD8MEMce99-72" value="positivo += 1" style="rounded=0;whiteSpace=wrap;html=1;" parent="1" vertex="1">
          <mxGeometry x="354" y="360" width="120" height="60" as="geometry" />
        </mxCell>
        <mxCell id="Gctm4PoFmCawCtxBsrHC-4" value="" style="edgeStyle=orthogonalEdgeStyle;rounded=0;orthogonalLoop=1;jettySize=auto;html=1;" edge="1" parent="1" source="Gctm4PoFmCawCtxBsrHC-3" target="2kgMk7FJ_yCD8MEMce99-48">
          <mxGeometry relative="1" as="geometry" />
        </mxCell>
        <mxCell id="Gctm4PoFmCawCtxBsrHC-3" value="Npositivi = 0" style="rounded=0;whiteSpace=wrap;html=1;" vertex="1" parent="1">
          <mxGeometry x="354" y="-880" width="120" height="60" as="geometry" />
        </mxCell>
        <mxCell id="Gctm4PoFmCawCtxBsrHC-11" value="END" style="ellipse;whiteSpace=wrap;html=1;" vertex="1" parent="1">
          <mxGeometry x="40" y="490" width="120" height="80" as="geometry" />
        </mxCell>
        <mxCell id="Gctm4PoFmCawCtxBsrHC-17" style="edgeStyle=orthogonalEdgeStyle;rounded=0;orthogonalLoop=1;jettySize=auto;html=1;" edge="1" parent="1" source="Gctm4PoFmCawCtxBsrHC-14">
          <mxGeometry relative="1" as="geometry">
            <mxPoint x="350" y="-300" as="targetPoint" />
          </mxGeometry>
        </mxCell>
        <mxCell id="Gctm4PoFmCawCtxBsrHC-14" value="" style="ellipse;whiteSpace=wrap;html=1;aspect=fixed;" vertex="1" parent="1">
          <mxGeometry x="130" y="-315" width="30" height="30" as="geometry" />
        </mxCell>
        <mxCell id="Gctm4PoFmCawCtxBsrHC-16" style="edgeStyle=orthogonalEdgeStyle;rounded=0;orthogonalLoop=1;jettySize=auto;html=1;entryX=1;entryY=0.5;entryDx=0;entryDy=0;" edge="1" parent="1" target="2kgMk7FJ_yCD8MEMce99-3">
          <mxGeometry relative="1" as="geometry">
            <mxPoint x="580" y="-300" as="sourcePoint" />
          </mxGeometry>
        </mxCell>
      </root>
    </mxGraphModel>
  </diagram>
</mxfile>
